# xmcd CD database file
#
# Track frame offsets:
#	150
#	22627
#	38934
#	51730
#	67770
#	82664
#	97830
#	120834
#	134894
#	148729
#	160449
#	174324
#
# Disc length: 2516 seconds
#
# Revision: 2
# Processed by: cddbd v1.5.2PL0 Copyright (c) Steve Scherf et al.
# Submitted via: CDex 1.51
#
DISCID=9509d20c
DTITLE=Manu Lanvin And The Devil Blues - Blues, Booze and Rock'n'roll
DYEAR=2016
DGENRE=Blues
TTITLE0=Six Blind White Horses
TTITLE1=Blues, Booze and Rock'n'roll
TTITLE2=Soul Revolution
TTITLE3=I Was Born
TTITLE4=R U There ?
TTITLE5=She's Da Bomb
TTITLE6=Whippin' Boy
TTITLE7=J.J. Cale On The Radio
TTITLE8=When I'm Down
TTITLE9=Papa's Got A Reefer
TTITLE10=Raise Your Hands For Peace
TTITLE11=Under The Waves
EXTD=YEAR: 2016
EXTT0=
EXTT1=
EXTT2=
EXTT3=
EXTT4=
EXTT5=
EXTT6=
EXTT7=
EXTT8=
EXTT9=
EXTT10=
EXTT11=
PLAYORDER=
